inDegrees=no
num_controls=7
num_derivatives=13
num_iterations=134
num_multipliers=7
num_parameters=0
num_slacks=7
num_states=26
objective=0.516807
objective_accelerations=0.039278
objective_balance=0.002224
objective_effort=0.043799
objective_height=0.419891
objective_ligament=0.011615
solver_duration=1773.153885
status=Solve_Succeeded
success=true
DataType=double
version=3
OpenSimVersion=4.5
endheader
time	/jointset/ground_pelvis/pelvis_tilt/value	/jointset/ground_pelvis/pelvis_tx/value	/jointset/ground_pelvis/pelvis_ty/value	/jointset/hip_l/hip_flexion_l/value	/jointset/hip_l/hip_adduction_l/value	/jointset/hip_l/hip_rotation_l/value	/jointset/back/lumbar_extension/value	/jointset/patellofemoral_l/patellar_flexion_l/value	/jointset/knee_l/knee_flexion_l/value	/jointset/knee_l/knee_adduction_l/value	/jointset/knee_l/knee_rotation_l/value	/jointset/ankle_l/ankle_angle_l/value	/jointset/subtalar_l/subtalar_angle_l/value	/jointset/ground_pelvis/pelvis_tilt/speed	/jointset/ground_pelvis/pelvis_tx/speed	/jointset/ground_pelvis/pelvis_ty/speed	/jointset/hip_l/hip_flexion_l/speed	/jointset/hip_l/hip_adduction_l/speed	/jointset/hip_l/hip_rotation_l/speed	/jointset/back/lumbar_extension/speed	/jointset/patellofemoral_l/patellar_flexion_l/speed	/jointset/knee_l/knee_flexion_l/speed	/jointset/knee_l/knee_adduction_l/speed	/jointset/knee_l/knee_rotation_l/speed	/jointset/ankle_l/ankle_angle_l/speed	/jointset/subtalar_l/subtalar_angle_l/speed	/forceset/tau_hip_flexion_l	/forceset/tau_hip_adduction_l	/forceset/tau_hip_rotation_l	/forceset/tau_knee_flexion_l	/forceset/tau_ankle_angle_l	/forceset/tau_subtalar_angle_l	/forceset/tau_lumbar_extension	lambda_cid13_p0	lambda_cid13_p1	lambda_cid13_p2	lambda_cid13_p3	lambda_cid13_p4	lambda_cid13_p5	lambda_cid14_p0	/jointset/ground_pelvis/pelvis_tilt/accel	/jointset/ground_pelvis/pelvis_tx/accel	/jointset/ground_pelvis/pelvis_ty/accel	/jointset/hip_l/hip_flexion_l/accel	/jointset/hip_l/hip_adduction_l/accel	/jointset/hip_l/hip_rotation_l/accel	/jointset/back/lumbar_extension/accel	/jointset/patellofemoral_l/patellar_flexion_l/accel	/jointset/knee_l/knee_flexion_l/accel	/jointset/knee_l/knee_adduction_l/accel	/jointset/knee_l/knee_rotation_l/accel	/jointset/ankle_l/ankle_angle_l/accel	/jointset/subtalar_l/subtalar_angle_l/accel	gamma_cid13_p0	gamma_cid13_p1	gamma_cid13_p2	gamma_cid13_p3	gamma_cid13_p4	gamma_cid13_p5	gamma_cid14_p0
1	-0.1631209359511903	-0.09168804797978333	0.7283322000018795	1.255344273813261	-0.3280894953207924	-0.005493770432372732	-0.959931037421053	1.153104679067542	1.153104679067622	-0.0810652887373718	-0.1745324713657018	0.138823794486644	0.01032796777399605	0.1061741490233543	0.02551121283290827	0.0670440097575975	-0.2923250977193482	0.000610522192031384	-0.06428845681011738	-0.001654830370938684	-0.1668000980824393	-0.1668000980824507	0.0006060462635049653	-8.01719335295925e-06	0.01086061209111038	0.005617899254341065	-0.4012698712716263	0.01860410364218965	-0.005095941052576562	-0.2895984208677843	0.1054512521214255	0.04223396823641045	0.436850022761146	-16.25898939204567	-15.46496332806837	1.976486277261361	4.703872313778542	-786.1602858903686	-69.20290207872611	-1.95188679084025	1.058191169719466	0.195550569602216	1.24442644538039	-4.654100834727272	-0.01375451375494055	-1.395219120069251	0.3150710875231145	-4.096546468756734	-4.096546468756673	-0.2088680056930554	-0.01084548846331124	-0.7693472284454037	-0.2728467205568506	-8.942741047343907e-09	-1.256710241234893e-08	3.754457111084137e-08	2.245914350258528e-09	-2.071903636750282e-08	4.834232714032775e-08	-1.084118517420382e-08
1.01	-0.1620067873081597	-0.09142312478703983	0.7290646140986876	1.252189384799792	-0.3280834730156359	-0.006206542281904434	-0.9599310878665697	1.151232311863793	1.151232311863781	-0.08106853174353151	-0.1745324602333286	0.1388940528313014	0.01037124259160754	0.1166509981016484	0.02747906287852911	0.07942518457299885	-0.3386259988547813	0.0006005567554868964	-0.07825823060168609	0.001664534055815249	-0.2076577869917758	-0.2076577869917874	-0.001253982634066403	8.770284800895667e-06	0.003186107191789992	0.003042640570515565	-0.400346137508489	0.01873502282509156	-0.005128638384427246	-0.2893564685803848	0.1053843634159181	0.04231906868272275	0.4363735933449996	-16.24151738190457	-15.51431691336098	1.99501765612163	4.57443414480398	-785.6744011947154	-69.28282769305432	-1.992770312125274	1.041743025211928	0.1982490964353568	1.232914066572884	-4.614080978962098	0.006373727376365876	-1.396716910823333	0.3433380385427663	-4.078043933600929	-4.078043933600985	-0.1744783110329809	0.007731637796813197	-0.7672456956406086	-0.2490315561140566	-1.366665025936723e-08	-2.000383007486512e-08	4.991323320942173e-08	6.457410754187368e-09	-2.584023788039635e-08	5.470120944353933e-08	-1.405299906310358e-08
1.02	-0.1607880079246804	-0.09113835371896144	0.7299204301570401	1.248572287529767	-0.3280773521076487	-0.007058783949776747	-0.9598973508841632	1.148951835004635	1.148951835004531	-0.08109035663451568	-0.1745323230718105	0.1388874174119726	0.01038893159961705	0.1271002971130437	0.02948078789988445	0.09172440206651426	-0.3847667490306451	0.000630242758165287	-0.09218242047816116	0.005102655214218212	-0.2484220291642653	-0.2484220291642769	-0.00311033070139007	1.718863663771202e-05	-0.004518140706140671	0.0005007373339436117	-0.3994224037453525	0.0188659420079928	-0.005161335716274766	-0.2891145162929854	0.1053174747104105	0.04240416912903421	0.4358971639288525	-16.23468512617166	-15.5615753898114	2.012949870879354	4.481038584886537	-785.3322336421147	-69.35498516394794	-2.043125642365904	1.052681156339702	0.2023255647491144	1.228034981003203	-4.622070642813391	-0.005824225910366454	-1.386102337050525	0.3388224338529282	-4.077857121387326	-4.077857121387232	-0.2081318396435152	-0.01251931372672271	-0.775295828167463	-0.2661756311061446	-1.863583065995314e-08	-2.893143202533713e-08	6.112140226266241e-08	1.073047536879601e-08	-3.15216755938517e-08	5.977394205041138e-08	-1.724693157121214e-08
1.03	-0.1594652871630544	-0.09083318636258325	0.7308988176869174	1.244494784122991	-0.3280707194031998	-0.008049958122629455	-0.9598268045905533	1.146264207180046	1.146264207180087	-0.08113078711053619	-0.1745321069520584	0.1388038428948649	0.01038147972817322	0.1373985144189173	0.03157959043786433	0.1039386384345737	-0.4306889716388784	0.0007031887083058702	-0.1060411152455283	0.009209495791974243	-0.2890862928125489	-0.2890862928125614	-0.004979775330404585	2.426802345944462e-05	-0.01217658574765669	-0.001975991123101094	-0.3999879654409934	0.01920536222982691	-0.005202339160556429	-0.2883250816386038	0.1050697359916195	0.0426428767794352	0.4371541866785331	-16.32083567384442	-15.66907664150695	2.051693798643503	4.037512751408489	-785.9052209465309	-69.45501719775615	-2.103248176278356	1.011589077206287	0.2176966843672336	1.215940667317583	-4.570556777857877	0.01488530471950661	-1.384077124156237	0.4770487123776693	-4.058120437906553	-4.058120437906745	-0.1769641478384394	0.007073288005979519	-0.7580948348274068	-0.2361555857676574	-2.360751382776927e-08	-3.787424697874748e-08	7.231772955013433e-08	1.50041682304524e-08	-3.720883000323115e-08	6.483355068079016e-08	-2.04406816162514e-08
